<?xml version="1.0" encoding="UTF-8"?>
<svg width="90px" height="98px" viewBox="0 0 90 98" version="1.1" xmlns="http://www.w3.org/2000/svg" xmlns:xlink="http://www.w3.org/1999/xlink">
    <!-- Generator: sketchtool 50.2 (55047) - http://www.bohemiancoding.com/sketch -->
    <title>D960ACD2-62AC-4B21-9513-5C72E0DF4EE4</title>
    <desc>Created with sketchtool.</desc>
    <defs></defs>
    <g id="page-design" stroke="none" stroke-width="1" fill="none" fill-rule="evenodd" fill-opacity="0.5" opacity="0.7">
        <g id="frontPage" transform="translate(-327.000000, -742.000000)" fill="#8DD4F7">
            <path d="M372,835 C386.368524,835 387.392113,820.514589 396.661803,812.547313 C405.563424,804.896391 423,803.998332 423,792.5 C423,782.937626 419.210346,774.112853 412.814325,767.011753 C403.510473,756.682272 388.691673,750 372,750 C359.165234,750 347.437817,753.950939 338.473569,760.472967 C327.765336,768.263848 321,779.723537 321,792.5 C321,803.367875 325.895053,813.282999 333.94805,820.797783 C343.287669,829.513198 356.874928,835 372,835 Z" id="Oval-Copy" transform="translate(372.000000, 792.500000) scale(-1, 1) rotate(-295.000000) translate(-372.000000, -792.500000) "></path>
        </g>
    </g>
</svg>