<?xml version="1.0" encoding="UTF-8"?>
<svg width="63px" height="74px" viewBox="0 0 63 74" version="1.1" xmlns="http://www.w3.org/2000/svg" xmlns:xlink="http://www.w3.org/1999/xlink">
    <!-- Generator: sketchtool 50.2 (55047) - http://www.bohemiancoding.com/sketch -->
    <title>F14A2F43-C5E1-47AA-8A3B-EE609D0C2EC8</title>
    <desc>Created with sketchtool.</desc>
    <defs></defs>
    <g id="page-design" stroke="none" stroke-width="1" fill="none" fill-rule="evenodd" fill-opacity="0.5" opacity="0.7">
        <g id="frontPage" transform="translate(-1110.000000, -471.000000)" fill="#39A89C">
            <path d="M1142.5,539 C1153.06509,539 1153.81773,528.434171 1160.63368,522.622746 C1167.17899,517.042074 1180,516.387018 1180,508 C1180,501.025092 1177.21349,494.588199 1172.51053,489.408573 C1165.66947,481.874128 1154.77329,477 1142.5,477 C1133.06267,477 1124.43957,479.881861 1117.84821,484.639105 C1109.97451,490.321865 1105,498.680697 1105,508 C1105,515.927156 1108.5993,523.159364 1114.52063,528.640736 C1121.38799,534.997862 1131.37862,539 1142.5,539 Z" id="Oval-Copy-5" transform="translate(1142.500000, 508.000000) scale(-1, 1) rotate(-252.000000) translate(-1142.500000, -508.000000) "></path>
        </g>
    </g>
</svg>