<?xml version="1.0" encoding="UTF-8"?>
<svg width="124px" height="138px" viewBox="0 0 124 138" version="1.1" xmlns="http://www.w3.org/2000/svg" xmlns:xlink="http://www.w3.org/1999/xlink">
    <!-- Generator: sketchtool 50.2 (55047) - http://www.bohemiancoding.com/sketch -->
    <title>26CAF5B8-FAAE-4C4A-A7F1-3B0D9DC3392A</title>
    <desc>Created with sketchtool.</desc>
    <defs></defs>
    <g id="page-design" stroke="none" stroke-width="1" fill="none" fill-rule="evenodd" fill-opacity="0.5" opacity="0.7">
        <g id="frontPage" transform="translate(-721.000000, -111.000000)" fill="#C13466">
            <path d="M783,238 C803.00324,238 804.428235,217.720425 817.333098,206.566239 C829.725551,195.854948 854,194.597664 854,178.5 C854,165.112676 848.724207,152.757994 839.819943,142.816454 C826.867521,128.35518 806.237428,119 783,119 C765.131992,119 748.805588,124.531314 736.325949,133.662153 C721.418409,144.569387 712,160.612952 712,178.5 C712,193.715025 729.241107,190.173967 737.362078,210.252384 C749.358727,237.629006 761.943527,238 783,238 Z" id="Oval-Copy-6" transform="translate(783.000000, 178.500000) scale(-1, 1) rotate(-112.000000) translate(-783.000000, -178.500000) "></path>
        </g>
    </g>
</svg>