<?xml version="1.0" encoding="UTF-8"?>
<svg width="211px" height="177px" viewBox="0 0 211 177" version="1.1" xmlns="http://www.w3.org/2000/svg" xmlns:xlink="http://www.w3.org/1999/xlink">
    <!-- Generator: sketchtool 50.2 (55047) - http://www.bohemiancoding.com/sketch -->
    <title>871CA257-337E-4214-97CF-31C5385B6D9D</title>
    <desc>Created with sketchtool.</desc>
    <defs></defs>
    <g id="page-design" stroke="none" stroke-width="1" fill="none" fill-rule="evenodd" fill-opacity="0.5" opacity="0.699999988">
        <g id="frontPage" transform="translate(-82.000000, -203.000000)" fill="#FFD400">
            <path d="M187.5,380 C217.223124,380 219.340547,349.836262 238.516082,333.245582 C256.93022,317.313662 293,315.443585 293,291.5 C293,271.587762 285.160618,253.21147 271.929633,238.424474 C261.25019,226.48909 247.05813,216.892124 230.64064,210.713349 C217.470975,205.756903 202.869286,203 187.5,203 C174.86896,203 162.756368,204.862054 151.531032,208.276783 C139.160797,212.039787 127.868035,217.68834 118.146304,224.808413 C112.970176,228.599344 108.239404,232.807422 104.028482,237.370157 C98.7703358,243.067609 94.3227574,249.318055 90.8307868,255.999823 C87.4698709,262.430823 84.9941805,269.261379 83.5330306,276.383013 C82.5251571,281.295382 82,286.346245 82,291.5 C82,303.820548 85.001247,315.553071 90.4239091,326.21117 C94.9617551,335.130186 101.19528,343.296799 108.784692,350.425971 C128.104883,368.574542 156.21186,380 187.5,380 Z" id="Oval"></path>
        </g>
    </g>
</svg>